<svg width="22" height="22" viewBox="0 0 22 22" fill="none" xmlns="http://www.w3.org/2000/svg">
<path d="M7.91208 9.56489C7.38534 8.51346 6.29788 7.79168 5.04183 7.79168C3.26992 7.79168 1.8335 9.2281 1.8335 11C1.8335 12.7719 3.26992 14.2083 5.04183 14.2083C6.29788 14.2083 7.38534 13.4866 7.91208 12.4351M7.91208 9.56489C8.12841 9.99671 8.25016 10.4841 8.25016 11C8.25016 11.5159 8.12841 12.0033 7.91208 12.4351M7.91208 9.56489L14.0882 6.4768M7.91208 12.4351L14.0882 15.5232M14.0882 6.4768C14.615 7.52823 15.7024 8.25001 16.9585 8.25001C18.7304 8.25001 20.1668 6.81359 20.1668 5.04168C20.1668 3.26976 18.7304 1.83334 16.9585 1.83334C15.1866 1.83334 13.7502 3.26976 13.7502 5.04168C13.7502 5.55754 13.8719 6.04497 14.0882 6.4768ZM14.0882 15.5232C13.8719 15.955 13.7502 16.4425 13.7502 16.9583C13.7502 18.7303 15.1866 20.1667 16.9585 20.1667C18.7304 20.1667 20.1668 18.7303 20.1668 16.9583C20.1668 15.1864 18.7304 13.75 16.9585 13.75C15.7024 13.75 14.615 14.4718 14.0882 15.5232Z" stroke="#28303F" stroke-width="1.5" stroke-linecap="round"/>
</svg>
