<svg width="24" height="24" viewBox="0 0 24 24" fill="none" xmlns="http://www.w3.org/2000/svg">
<path d="M22.9673 18.289C22.7733 18.769 21.8023 19.166 20.1593 19.436C20.0063 19.462 19.9393 19.728 19.8513 20.163C19.8153 20.343 19.7763 20.518 19.7263 20.703C19.7116 20.7798 19.6702 20.8489 19.6093 20.898C19.55 20.9445 19.4754 20.967 19.4003 20.961H19.3753C19.2183 20.9544 19.0623 20.933 18.9093 20.897C18.5044 20.8074 18.091 20.7615 17.6763 20.76C17.377 20.76 17.0803 20.7867 16.7863 20.84C16.1606 21.0116 15.5832 21.3258 15.0993 21.758C14.2878 22.5042 13.2412 22.9435 12.1403 23C12.0783 23 12.0183 22.998 11.9733 22.995C11.9367 22.9987 11.9 23.0004 11.8633 23C10.7618 22.9446 9.71456 22.5051 8.9033 21.758C8.41941 21.3258 7.84198 21.0116 7.2163 20.84C6.92261 20.7869 6.62475 20.7601 6.3263 20.76C5.91214 20.7645 5.4997 20.8142 5.0963 20.908C4.9423 20.9467 4.78629 20.97 4.62829 20.978C4.58884 20.9834 4.54872 20.9808 4.51026 20.9705C4.47181 20.9602 4.43578 20.9424 4.40429 20.918C4.33844 20.8668 4.29305 20.7938 4.27629 20.712C4.22865 20.5322 4.18729 20.3507 4.15229 20.168C4.06229 19.731 3.99729 19.464 3.8443 19.438C2.20029 19.169 1.23029 18.771 1.03629 18.289C1.01641 18.2406 1.00426 18.1893 1.00029 18.137C0.997259 18.0686 1.01773 18.0012 1.05829 17.946C1.0976 17.8924 1.15592 17.8559 1.22129 17.844C2.58129 17.582 3.80529 16.807 4.67129 15.66C5.15079 15.0681 5.5465 14.4129 5.8473 13.713L5.85129 13.7C5.94124 13.5416 5.99769 13.3664 6.01712 13.1853C6.03656 13.0041 6.01858 12.8209 5.9643 12.647C5.7543 12.116 5.05229 11.879 4.58829 11.722C4.48313 11.689 4.37937 11.6516 4.27729 11.61C3.86529 11.437 3.1893 11.07 3.27929 10.567C3.34615 10.3796 3.46904 10.2172 3.63129 10.102C3.78891 9.99098 3.97863 9.93477 4.17129 9.94203C4.26458 9.9401 4.35703 9.95996 4.44129 10C4.78432 10.1871 5.16509 10.2944 5.55529 10.314C5.78878 10.3303 6.01942 10.255 6.1983 10.104L6.1583 9.40403C5.94799 7.82702 6.03824 6.22445 6.42429 4.68103C6.86545 3.59181 7.61427 2.65465 8.5793 1.98403C9.51715 1.33368 10.6341 0.991188 11.7753 1.00403L12.2183 1.00003C13.3609 0.986356 14.4793 1.32888 15.4183 1.98003C16.3849 2.65063 17.1354 3.58809 17.5783 4.67803C17.9643 6.22318 18.0539 7.82751 17.8423 9.40603L17.8383 9.48203L17.8033 10.104C17.9683 10.244 18.1743 10.317 18.3863 10.312C18.7533 10.282 19.1103 10.177 19.4383 10C19.5454 9.95043 19.6622 9.92515 19.7803 9.92603C19.917 9.92669 20.0476 9.95336 20.1723 10.006L20.1783 10.01C20.3217 10.0457 20.4502 10.1259 20.5453 10.239C20.6444 10.3544 20.7086 10.4955 20.7303 10.646C20.7343 10.891 20.5643 11.256 19.7253 11.61C19.6229 11.6508 19.5192 11.6881 19.4143 11.722C18.9483 11.879 18.2483 12.116 18.0383 12.647C17.9838 12.8204 17.9655 13.0032 17.9844 13.1839C18.0034 13.3647 18.0591 13.5397 18.1483 13.698L18.1553 13.712C18.5663 14.7228 19.2016 15.6269 20.0133 16.356C20.8035 17.0659 21.7524 17.5761 22.7803 17.844C22.8453 17.8562 22.9032 17.8927 22.9423 17.946C22.9829 18.0012 23.0033 18.0686 23.0003 18.137C22.9969 18.1899 22.985 18.2419 22.9653 18.291L22.9673 18.289Z" fill="#FFFB00"/>
</svg>
