<svg width="51" height="50" viewBox="0 0 51 50" fill="none" xmlns="http://www.w3.org/2000/svg">
<path d="M25.5002 2.08333C20.9677 2.08333 16.537 3.42737 12.7684 5.94549C8.99973 8.4636 6.06244 12.0427 4.32793 16.2302C2.59343 20.4176 2.1396 25.0254 3.02384 29.4708C3.90809 33.9162 6.09069 37.9996 9.29564 41.2045C12.5006 44.4095 16.584 46.5921 21.0294 47.4763C25.4748 48.3606 30.0825 47.9067 34.27 46.1722C38.4575 44.4377 42.0366 41.5004 44.5547 37.7318C47.0728 33.9632 48.4168 29.5325 48.4168 25C48.4168 18.9221 46.0024 13.0932 41.7047 8.79547C37.407 4.49776 31.578 2.08333 25.5002 2.08333ZM37.3898 20.2229L22.8064 34.8062C22.4157 35.1968 21.8859 35.4162 21.3335 35.4162C20.7811 35.4162 20.2513 35.1968 19.8606 34.8062L13.6106 28.5562C13.2311 28.1633 13.0211 27.6371 13.0259 27.0908C13.0306 26.5446 13.2497 26.0221 13.636 25.6358C14.0222 25.2495 14.5448 25.0304 15.091 25.0257C15.6372 25.0209 16.1635 25.2309 16.5564 25.6104L21.3335 30.3875L34.4439 17.2771C34.8368 16.8976 35.3631 16.6876 35.9093 16.6923C36.4556 16.6971 36.9781 16.9162 37.3644 17.3025C37.7506 17.6887 37.9697 18.2113 37.9745 18.7575C37.9792 19.3037 37.7693 19.83 37.3898 20.2229Z" fill="#5500FF"/>
</svg>
