<svg width="22" height="23" viewBox="0 0 22 23" fill="none" xmlns="http://www.w3.org/2000/svg">
<path d="M5.49984 18.8333C4.99567 18.8333 4.56423 18.6539 4.2055 18.2952C3.84678 17.9365 3.66712 17.5048 3.6665 17V15.1666C3.6665 14.9069 3.7545 14.6894 3.9305 14.514C4.1065 14.3386 4.32406 14.2506 4.58317 14.25C4.84228 14.2494 5.06014 14.3374 5.23675 14.514C5.41336 14.6906 5.50106 14.9081 5.49984 15.1666V17H16.4998V15.1666C16.4998 14.9069 16.5878 14.6894 16.7638 14.514C16.9398 14.3386 17.1574 14.2506 17.4165 14.25C17.6756 14.2494 17.8935 14.3374 18.0701 14.514C18.2467 14.6906 18.3344 14.9081 18.3332 15.1666V17C18.3332 17.5041 18.1538 17.9359 17.7951 18.2952C17.4364 18.6546 17.0046 18.8339 16.4998 18.8333H5.49984ZM10.0832 7.69581L8.36442 9.41456C8.18109 9.59789 7.96353 9.68589 7.71175 9.67856C7.45998 9.67123 7.24212 9.57559 7.05817 9.39164C6.89012 9.20831 6.80212 8.99442 6.79417 8.74998C6.78623 8.50553 6.87423 8.29164 7.05817 8.10831L10.3582 4.80831C10.4498 4.71664 10.5491 4.65187 10.6561 4.61398C10.763 4.57609 10.8776 4.55684 10.9998 4.55623C11.1221 4.55562 11.2366 4.57487 11.3436 4.61398C11.4505 4.65309 11.5498 4.71787 11.6415 4.80831L14.9415 8.10831C15.1248 8.29164 15.2128 8.50553 15.2055 8.74998C15.1982 8.99442 15.1102 9.20831 14.9415 9.39164C14.7582 9.57498 14.5406 9.67062 14.2888 9.67856C14.0371 9.6865 13.8192 9.59851 13.6353 9.41456L11.9165 7.69581V14.25C11.9165 14.5097 11.8285 14.7276 11.6525 14.9036C11.4765 15.0796 11.2589 15.1673 10.9998 15.1666C10.7407 15.166 10.5232 15.078 10.3472 14.9026C10.1712 14.7273 10.0832 14.5097 10.0832 14.25V7.69581Z" fill="black"/>
</svg>
