<svg width="48" height="14" viewBox="0 0 48 14" fill="none" xmlns="http://www.w3.org/2000/svg">
<path d="M31.2363 0.907715C32.7325 0.907765 33.9439 1.18683 34.708 1.43994L34.1826 4.14111L33.8311 4.00635C33.1302 3.75449 32.206 3.50175 30.9492 3.52881C29.4214 3.52891 28.7372 4.07391 28.7207 4.60596C28.7208 5.19113 29.5495 5.57774 30.9014 6.1499C33.1316 7.04107 34.1635 8.13087 34.1504 9.5542C34.1172 12.149 31.4759 13.8256 27.416 13.8257C25.6813 13.8101 24.0094 13.5059 23.1006 13.1597L23.6416 10.3521L24.1514 10.5513C25.4097 11.0176 26.2391 11.2163 27.7822 11.2163C28.8958 11.2162 30.0888 10.8304 30.1055 9.99365C30.1055 9.44852 29.5962 9.05056 28.0996 8.43701C26.6347 7.83892 24.6776 6.84198 24.709 5.04541C24.7257 2.61061 27.4159 0.907715 31.2363 0.907715ZM47.7461 13.8101H44.165L43.585 11.2388H39.042L37.9238 13.8003H33.8643L39.6104 1.96924C40.0097 1.15831 40.7107 0.931217 41.6328 0.931152H44.626L47.7461 13.8101ZM20.6807 13.8003H16.8115L19.2324 0.891113H23.0996L20.6807 13.8003ZM13.5791 0.89209H17.6719L11.5898 13.7866H7.49609L4.02539 2.68994C6.47751 3.76717 8.67513 5.93649 9.37598 7.93213L9.78809 9.66162L13.5791 0.891113V0.89209ZM41.7266 4.47217C41.714 4.5076 40.246 8.65834 40.168 8.65186H42.9053L41.7266 4.47217Z" fill="white"/>
<path d="M8.09929 2.64869C7.82225 1.60798 6.93874 0.906092 5.73881 0.891113H0.108762L0.0507812 1.14365C4.44261 2.18975 8.1289 5.40863 9.3248 8.43639L8.09929 2.64869Z" fill="white"/>
</svg>
