<svg width="336" height="81" viewBox="0 0 336 81" fill="none" xmlns="http://www.w3.org/2000/svg">
<path d="M1.71509 15L1.25309 13.852L4.24909 10.478C4.40775 10.31 4.57109 10.1187 4.73909 9.904C4.91642 9.68 5.08442 9.45133 5.24309 9.218C5.40175 8.98467 5.52775 8.756 5.62109 8.532C5.72375 8.29867 5.77509 8.07933 5.77509 7.874C5.77509 7.57533 5.71442 7.32333 5.59309 7.118C5.48109 6.90333 5.31309 6.74 5.08909 6.628C4.87442 6.516 4.61309 6.46 4.30509 6.46C4.03442 6.46 3.76842 6.53933 3.50709 6.698C3.24575 6.85667 3.00775 7.08067 2.79309 7.37C2.57842 7.65933 2.41042 7.99533 2.28909 8.378L1.12709 7.65C1.28575 7.10867 1.52375 6.64667 1.84109 6.264C2.16775 5.872 2.55509 5.57333 3.00309 5.368C3.46042 5.16267 3.95509 5.06 4.48709 5.06C5.03775 5.06 5.52775 5.17667 5.95709 5.41C6.38642 5.634 6.72242 5.95133 6.96509 6.362C7.20775 6.76333 7.32909 7.23 7.32909 7.762C7.32909 7.97667 7.30575 8.196 7.25909 8.42C7.21242 8.644 7.13775 8.87733 7.03509 9.12C6.93242 9.35333 6.80175 9.60067 6.64309 9.862C6.48442 10.114 6.29309 10.38 6.06909 10.66C5.85442 10.94 5.60709 11.234 5.32709 11.542L3.10109 13.964L2.82109 13.544H7.63709V15H1.71509ZM12.325 15.14C11.5783 15.14 10.9343 14.9347 10.393 14.524C9.86101 14.1133 9.45034 13.5347 9.16101 12.788C8.87167 12.032 8.72701 11.136 8.72701 10.1C8.72701 9.064 8.87167 8.17267 9.16101 7.426C9.45034 6.67 9.86101 6.08667 10.393 5.676C10.9343 5.26533 11.5783 5.06 12.325 5.06C13.0717 5.06 13.7157 5.26533 14.257 5.676C14.7983 6.08667 15.2137 6.67 15.503 7.426C15.7923 8.17267 15.937 9.064 15.937 10.1C15.937 11.136 15.7923 12.032 15.503 12.788C15.2137 13.5347 14.7983 14.1133 14.257 14.524C13.7157 14.9347 13.0717 15.14 12.325 15.14ZM12.325 13.768C13.0063 13.768 13.5337 13.4507 13.907 12.816C14.2803 12.172 14.467 11.2667 14.467 10.1C14.467 8.93333 14.2803 8.03267 13.907 7.398C13.5337 6.754 13.0063 6.432 12.325 6.432C11.6437 6.432 11.1163 6.754 10.743 7.398C10.3697 8.03267 10.183 8.93333 10.183 10.1C10.183 11.2667 10.3697 12.172 10.743 12.816C11.1163 13.4507 11.6437 13.768 12.325 13.768Z" fill="#666666"/>
<path d="M27 10H335" stroke="#D9D9D9" stroke-miterlimit="10" stroke-linecap="round" stroke-linejoin="round"/>
<path d="M3.05948 42.314V34.362L3.57748 34.754L1.64548 35.776L1.23948 34.46L3.85748 33.06H4.58548V42.314H3.05948ZM1.50548 43V41.544H6.18148V43H1.50548ZM10.6195 43.098C9.97548 43.098 9.39215 42.9533 8.86948 42.664C8.34682 42.3653 7.91282 41.9407 7.56748 41.39L8.40748 40.452C8.84615 40.9373 9.22882 41.2687 9.55548 41.446C9.88215 41.6233 10.2368 41.712 10.6195 41.712C11.0022 41.712 11.3475 41.628 11.6555 41.46C11.9635 41.292 12.2062 41.0633 12.3835 40.774C12.5702 40.4847 12.6635 40.1627 12.6635 39.808C12.6635 39.4347 12.5748 39.1033 12.3975 38.814C12.2295 38.5153 12.0008 38.282 11.7115 38.114C11.4222 37.9367 11.0955 37.848 10.7315 37.848C10.5542 37.848 10.3862 37.862 10.2275 37.89C10.0688 37.9087 9.87748 37.96 9.65348 38.044C9.42948 38.128 9.13548 38.2587 8.77148 38.436L7.97348 37.358L8.54748 33.2H13.8395V34.6H9.49948L9.79348 34.334L9.33148 37.442L8.98148 37.036C9.07482 36.9427 9.23348 36.854 9.45748 36.77C9.68148 36.6767 9.92882 36.602 10.1995 36.546C10.4795 36.4807 10.7455 36.448 10.9975 36.448C11.5948 36.448 12.1268 36.588 12.5935 36.868C13.0695 37.1387 13.4428 37.5167 13.7135 38.002C13.9935 38.4873 14.1335 39.0427 14.1335 39.668C14.1335 40.312 13.9795 40.8953 13.6715 41.418C13.3635 41.9313 12.9435 42.342 12.4115 42.65C11.8795 42.9487 11.2822 43.098 10.6195 43.098Z" fill="#666666"/>
<path d="M25 38H335" stroke="#D9D9D9" stroke-miterlimit="10" stroke-linecap="round" stroke-linejoin="round"/>
<path d="M3.28605 70.314V62.362L3.80405 62.754L1.87205 63.776L1.46605 62.46L4.08405 61.06H4.81205V70.314H3.28605ZM1.73205 71V69.544H6.40805V71H1.73205ZM11.49 71.14C10.7434 71.14 10.0994 70.9347 9.55805 70.524C9.02605 70.1133 8.61538 69.5347 8.32605 68.788C8.03671 68.032 7.89205 67.136 7.89205 66.1C7.89205 65.064 8.03671 64.1727 8.32605 63.426C8.61538 62.67 9.02605 62.0867 9.55805 61.676C10.0994 61.2653 10.7434 61.06 11.49 61.06C12.2367 61.06 12.8807 61.2653 13.422 61.676C13.9634 62.0867 14.3787 62.67 14.668 63.426C14.9574 64.1727 15.102 65.064 15.102 66.1C15.102 67.136 14.9574 68.032 14.668 68.788C14.3787 69.5347 13.9634 70.1133 13.422 70.524C12.8807 70.9347 12.2367 71.14 11.49 71.14ZM11.49 69.768C12.1714 69.768 12.6987 69.4507 13.072 68.816C13.4454 68.172 13.632 67.2667 13.632 66.1C13.632 64.9333 13.4454 64.0327 13.072 63.398C12.6987 62.754 12.1714 62.432 11.49 62.432C10.8087 62.432 10.2814 62.754 9.90805 63.398C9.53471 64.0327 9.34805 64.9333 9.34805 66.1C9.34805 67.2667 9.53471 68.172 9.90805 68.816C10.2814 69.4507 10.8087 69.768 11.49 69.768Z" fill="#666666"/>
<path d="M26 66H334" stroke="#D9D9D9" stroke-width="0.5" stroke-miterlimit="10" stroke-linecap="round" stroke-linejoin="round"/>
<path d="M28.6743 66.5C28.6743 67.3288 28.0031 68 27.1743 68C26.3456 68 25.6743 67.3288 25.6743 66.5C25.6743 65.6712 26.3456 65 27.1743 65C28.0031 65.0013 28.6743 65.6725 28.6743 66.5Z" fill="#5500FF"/>
<path d="M45.6743 66.5C45.6743 67.3288 45.0031 68 44.1743 68C43.3456 68 42.6743 67.3288 42.6743 66.5C42.6743 65.6712 43.3456 65 44.1743 65C45.0031 65.0013 45.6743 65.6725 45.6743 66.5Z" fill="#CCCCCC"/>
<path d="M62.6743 66.5C62.6743 67.3288 62.0031 68 61.1743 68C60.3456 68 59.6743 67.3288 59.6743 66.5C59.6743 65.6712 60.3456 65 61.1743 65C62.0031 65.0013 62.6743 65.6725 62.6743 66.5Z" fill="#5500FF"/>
<path d="M79.6743 66.5C79.6743 67.3288 79.0031 68 78.1743 68C77.3456 68 76.6743 67.3288 76.6743 66.5C76.6743 65.6712 77.3456 65 78.1743 65C79.0031 65.0013 79.6743 65.6725 79.6743 66.5Z" fill="#CCCCCC"/>
<path d="M96.6743 66.5C96.6743 67.3288 96.0031 68 95.1743 68C94.3456 68 93.6743 67.3288 93.6743 66.5C93.6743 65.6712 94.3456 65 95.1743 65C96.0031 65.0013 96.6743 65.6725 96.6743 66.5Z" fill="#5500FF"/>
<path d="M113.674 66.5C113.674 67.3288 113.003 68 112.174 68C111.346 68 110.674 67.3288 110.674 66.5C110.674 65.6712 111.346 65 112.174 65C113.003 65.0013 113.674 65.6725 113.674 66.5Z" fill="#CCCCCC"/>
<path d="M130.674 66.5C130.674 67.3288 130.003 68 129.174 68C128.346 68 127.674 67.3288 127.674 66.5C127.674 65.6712 128.346 65 129.174 65C130.003 65.0013 130.674 65.6725 130.674 66.5Z" fill="#5500FF"/>
<path d="M147.674 66.5C147.674 67.3288 147.003 68 146.174 68C145.346 68 144.674 67.3288 144.674 66.5C144.674 65.6712 145.346 65 146.174 65C147.003 65.0013 147.674 65.6725 147.674 66.5Z" fill="#CCCCCC"/>
<path d="M164.674 66.5C164.674 67.3288 164.003 68 163.174 68C162.346 68 161.674 67.3288 161.674 66.5C161.674 65.6712 162.346 65 163.174 65C164.003 65.0013 164.674 65.6725 164.674 66.5Z" fill="#5500FF"/>
<path d="M181.674 66.5C181.674 67.3288 181.003 68 180.174 68C179.346 68 178.674 67.3288 178.674 66.5C178.674 65.6712 179.346 65 180.174 65C181.003 65.0013 181.674 65.6725 181.674 66.5Z" fill="#CCCCCC"/>
<path d="M198.674 66.5C198.674 67.3288 198.003 68 197.174 68C196.346 68 195.674 67.3288 195.674 66.5C195.674 65.6712 196.346 65 197.174 65C198.003 65.0013 198.674 65.6725 198.674 66.5Z" fill="#5500FF"/>
<path d="M215.674 66.5C215.674 67.3288 215.003 68 214.174 68C213.346 68 212.674 67.3288 212.674 66.5C212.674 65.6712 213.346 65 214.174 65C215.003 65.0013 215.674 65.6725 215.674 66.5Z" fill="#CCCCCC"/>
<path d="M232.674 66.5C232.674 67.3288 232.003 68 231.174 68C230.346 68 229.674 67.3288 229.674 66.5C229.674 65.6712 230.346 65 231.174 65C232.003 65.0013 232.674 65.6725 232.674 66.5Z" fill="#5500FF"/>
<path d="M249.674 66.5C249.674 67.3288 249.003 68 248.174 68C247.346 68 246.674 67.3288 246.674 66.5C246.674 65.6712 247.346 65 248.174 65C249.003 65.0013 249.674 65.6725 249.674 66.5Z" fill="#CCCCCC"/>
<path d="M266.674 66.5C266.674 67.3288 266.003 68 265.174 68C264.346 68 263.674 67.3288 263.674 66.5C263.674 65.6712 264.346 65 265.174 65C266.003 65.0013 266.674 65.6725 266.674 66.5Z" fill="#5500FF"/>
<path d="M283.674 66.5C283.674 67.3288 283.003 68 282.174 68C281.346 68 280.674 67.3288 280.674 66.5C280.674 65.6712 281.346 65 282.174 65C283.003 65.0013 283.674 65.6725 283.674 66.5Z" fill="#CCCCCC"/>
<path d="M300.674 66.5C300.674 67.3288 300.003 68 299.174 68C298.346 68 297.674 67.3288 297.674 66.5C297.674 65.6712 298.346 65 299.174 65C300.003 65.0013 300.674 65.6725 300.674 66.5Z" fill="#5500FF"/>
<path d="M317.674 66.5C317.674 67.3288 317.003 68 316.174 68C315.346 68 314.674 67.3288 314.674 66.5C314.674 65.6712 315.346 65 316.174 65C317.003 65.0013 317.674 65.6725 317.674 66.5Z" fill="#CCCCCC"/>
<path d="M334.674 66.5C334.674 67.3288 334.003 68 333.174 68C332.346 68 331.674 67.3288 331.674 66.5C331.674 65.6712 332.346 65 333.174 65C334.003 65.0013 334.674 65.6725 334.674 66.5Z" fill="#5500FF"/>
<path d="M26.9929 80.1C26.4596 80.1 25.9996 79.9533 25.6129 79.66C25.2329 79.3667 24.9396 78.9533 24.7329 78.42C24.5262 77.88 24.4229 77.24 24.4229 76.5C24.4229 75.76 24.5262 75.1233 24.7329 74.59C24.9396 74.05 25.2329 73.6333 25.6129 73.34C25.9996 73.0467 26.4596 72.9 26.9929 72.9C27.5262 72.9 27.9862 73.0467 28.3729 73.34C28.7596 73.6333 29.0562 74.05 29.2629 74.59C29.4696 75.1233 29.5729 75.76 29.5729 76.5C29.5729 77.24 29.4696 77.88 29.2629 78.42C29.0562 78.9533 28.7596 79.3667 28.3729 79.66C27.9862 79.9533 27.5262 80.1 26.9929 80.1ZM26.9929 79.12C27.4796 79.12 27.8562 78.8933 28.1229 78.44C28.3896 77.98 28.5229 77.3333 28.5229 76.5C28.5229 75.6667 28.3896 75.0233 28.1229 74.57C27.8562 74.11 27.4796 73.88 26.9929 73.88C26.5062 73.88 26.1296 74.11 25.8629 74.57C25.5962 75.0233 25.4629 75.6667 25.4629 76.5C25.4629 77.3333 25.5962 77.98 25.8629 78.44C26.1296 78.8933 26.5062 79.12 26.9929 79.12Z" fill="#D9D9D9"/>
<path d="M60.67 79.51V73.83L61.04 74.11L59.66 74.84L59.37 73.9L61.24 72.9H61.76V79.51H60.67ZM59.56 80V78.96H62.9V80H59.56Z" fill="#D9D9D9"/>
<path d="M93.1907 80L92.8607 79.18L95.0007 76.77C95.1141 76.65 95.2307 76.5133 95.3507 76.36C95.4774 76.2 95.5974 76.0367 95.7107 75.87C95.8241 75.7033 95.9141 75.54 95.9807 75.38C96.0541 75.2133 96.0907 75.0567 96.0907 74.91C96.0907 74.6967 96.0474 74.5167 95.9607 74.37C95.8807 74.2167 95.7607 74.1 95.6007 74.02C95.4474 73.94 95.2607 73.9 95.0407 73.9C94.8474 73.9 94.6574 73.9567 94.4707 74.07C94.2841 74.1833 94.1141 74.3433 93.9607 74.55C93.8074 74.7567 93.6874 74.9967 93.6007 75.27L92.7707 74.75C92.8841 74.3633 93.0541 74.0333 93.2807 73.76C93.5141 73.48 93.7907 73.2667 94.1107 73.12C94.4374 72.9733 94.7907 72.9 95.1707 72.9C95.5641 72.9 95.9141 72.9833 96.2207 73.15C96.5274 73.31 96.7674 73.5367 96.9407 73.83C97.1141 74.1167 97.2007 74.45 97.2007 74.83C97.2007 74.9833 97.1841 75.14 97.1507 75.3C97.1174 75.46 97.0641 75.6267 96.9907 75.8C96.9174 75.9667 96.8241 76.1433 96.7107 76.33C96.5974 76.51 96.4607 76.7 96.3007 76.9C96.1474 77.1 95.9707 77.31 95.7707 77.53L94.1807 79.26L93.9807 78.96H97.4207V80H93.1907Z" fill="#D9D9D9"/>
<path d="M128.864 80.1C128.37 80.1 127.94 79.9867 127.574 79.76C127.214 79.5333 126.874 79.1533 126.554 78.62L127.394 78.09C127.56 78.3367 127.724 78.54 127.884 78.7C128.05 78.8533 128.22 78.9667 128.394 79.04C128.567 79.1133 128.75 79.15 128.944 79.15C129.177 79.15 129.394 79.0933 129.594 78.98C129.794 78.86 129.954 78.6967 130.074 78.49C130.194 78.2833 130.254 78.05 130.254 77.79C130.254 77.53 130.207 77.31 130.114 77.13C130.02 76.9433 129.884 76.8033 129.704 76.71C129.524 76.61 129.31 76.56 129.064 76.56C128.95 76.56 128.83 76.5733 128.704 76.6C128.584 76.62 128.454 76.6533 128.314 76.7C128.174 76.74 128.02 76.7933 127.854 76.86L127.554 76.07L129.714 73.69L129.924 74H126.944V73H130.954L131.154 73.4L128.864 75.94L128.614 75.68C128.667 75.6533 128.754 75.63 128.874 75.61C129 75.5833 129.104 75.57 129.184 75.57C129.477 75.57 129.75 75.6267 130.004 75.74C130.264 75.8467 130.487 76 130.674 76.2C130.867 76.3933 131.017 76.6233 131.124 76.89C131.237 77.15 131.294 77.43 131.294 77.73C131.294 78.1833 131.184 78.59 130.964 78.95C130.75 79.3033 130.46 79.5833 130.094 79.79C129.727 79.9967 129.317 80.1 128.864 80.1Z" fill="#D9D9D9"/>
<path d="M163.419 80V74.36L163.669 74.42L161.369 77.23L161.329 77.11H165.679V78.1H160.659L160.199 77.2L163.629 73H164.459V80H163.419Z" fill="#D9D9D9"/>
<path d="M196.728 80.07C196.268 80.07 195.852 79.9667 195.478 79.76C195.105 79.5467 194.795 79.2433 194.548 78.85L195.148 78.18C195.462 78.5267 195.735 78.7633 195.968 78.89C196.202 79.0167 196.455 79.08 196.728 79.08C197.002 79.08 197.248 79.02 197.468 78.9C197.688 78.78 197.862 78.6167 197.988 78.41C198.122 78.2033 198.188 77.9733 198.188 77.72C198.188 77.4533 198.125 77.2167 197.998 77.01C197.878 76.7967 197.715 76.63 197.508 76.51C197.302 76.3833 197.068 76.32 196.808 76.32C196.682 76.32 196.562 76.33 196.448 76.35C196.335 76.3633 196.198 76.4 196.038 76.46C195.878 76.52 195.668 76.6133 195.408 76.74L194.838 75.97L195.248 73H199.028V74H195.928L196.138 73.81L195.808 76.03L195.558 75.74C195.625 75.6733 195.738 75.61 195.898 75.55C196.058 75.4833 196.235 75.43 196.428 75.39C196.628 75.3433 196.818 75.32 196.998 75.32C197.425 75.32 197.805 75.42 198.138 75.62C198.478 75.8133 198.745 76.0833 198.938 76.43C199.138 76.7767 199.238 77.1733 199.238 77.62C199.238 78.08 199.128 78.4967 198.908 78.87C198.688 79.2367 198.388 79.53 198.008 79.75C197.628 79.9633 197.202 80.07 196.728 80.07Z" fill="#D9D9D9"/>
<path d="M231.047 80C230.7 80 230.377 79.94 230.077 79.82C229.783 79.6933 229.527 79.52 229.307 79.3C229.093 79.08 228.923 78.82 228.797 78.52C228.677 78.22 228.617 77.89 228.617 77.53C228.617 77.35 228.64 77.15 228.687 76.93C228.74 76.7033 228.817 76.4567 228.917 76.19C229.023 75.9233 229.15 75.6433 229.297 75.35C229.443 75.05 229.613 74.74 229.807 74.42L230.717 72.88H231.767L231.807 72.98L230.707 74.83C230.507 75.17 230.327 75.4933 230.167 75.8C230.013 76.1067 229.883 76.3967 229.777 76.67C229.67 76.9367 229.59 77.18 229.537 77.4L229.297 76.37C229.423 76.1633 229.56 75.9833 229.707 75.83C229.853 75.67 230.01 75.5367 230.177 75.43C230.35 75.3233 230.53 75.2433 230.717 75.19C230.903 75.1367 231.097 75.11 231.297 75.11C231.683 75.11 232.037 75.2167 232.357 75.43C232.683 75.6367 232.943 75.9133 233.137 76.26C233.337 76.6067 233.437 76.9867 233.437 77.4C233.437 77.9 233.333 78.3467 233.127 78.74C232.927 79.1267 232.647 79.4333 232.287 79.66C231.927 79.8867 231.513 80 231.047 80ZM231.047 79C231.307 79 231.537 78.94 231.737 78.82C231.943 78.6933 232.103 78.52 232.217 78.3C232.337 78.0733 232.397 77.8167 232.397 77.53C232.397 77.2833 232.337 77.0533 232.217 76.84C232.097 76.62 231.937 76.4433 231.737 76.31C231.537 76.1767 231.313 76.11 231.067 76.11C230.793 76.11 230.55 76.1733 230.337 76.3C230.123 76.4267 229.957 76.5967 229.837 76.81C229.717 77.0233 229.657 77.26 229.657 77.52C229.657 77.8 229.717 78.0533 229.837 78.28C229.957 78.5 230.12 78.6767 230.327 78.81C230.533 78.9367 230.773 79 231.047 79Z" fill="#D9D9D9"/>
<path d="M263.41 80L266.31 73.68L266.43 74H262.89V73H267.22L267.36 73.69L264.57 80H263.41Z" fill="#D9D9D9"/>
<path d="M298.994 80.03C298.561 80.03 298.164 79.94 297.804 79.76C297.451 79.5733 297.168 79.3267 296.954 79.02C296.741 78.7133 296.634 78.3733 296.634 78C296.634 77.7933 296.661 77.6 296.714 77.42C296.774 77.2333 296.861 77.0633 296.974 76.91C297.094 76.7567 297.238 76.6167 297.404 76.49C297.571 76.3633 297.764 76.25 297.984 76.15L297.924 76.36C297.751 76.2933 297.594 76.2133 297.454 76.12C297.321 76.02 297.204 75.9067 297.104 75.78C297.004 75.6533 296.928 75.5167 296.874 75.37C296.828 75.2233 296.804 75.07 296.804 74.91C296.804 74.5567 296.901 74.2367 297.094 73.95C297.294 73.6633 297.558 73.4333 297.884 73.26C298.218 73.0867 298.588 73 298.994 73C299.401 73 299.768 73.0867 300.094 73.26C300.428 73.4333 300.691 73.6633 300.884 73.95C301.084 74.2367 301.184 74.5567 301.184 74.91C301.184 75.07 301.158 75.2233 301.104 75.37C301.058 75.5167 300.988 75.65 300.894 75.77C300.801 75.89 300.681 76 300.534 76.1C300.394 76.2 300.234 76.2867 300.054 76.36L300.024 76.19C300.224 76.27 300.404 76.3733 300.564 76.5C300.731 76.6267 300.874 76.77 300.994 76.93C301.114 77.09 301.204 77.26 301.264 77.44C301.331 77.62 301.364 77.8067 301.364 78C301.364 78.38 301.258 78.7233 301.044 79.03C300.831 79.3367 300.544 79.58 300.184 79.76C299.831 79.94 299.434 80.03 298.994 80.03ZM298.994 79.03C299.241 79.03 299.461 78.9833 299.654 78.89C299.854 78.7967 300.011 78.67 300.124 78.51C300.238 78.35 300.294 78.1667 300.294 77.96C300.294 77.74 300.238 77.5467 300.124 77.38C300.011 77.2067 299.854 77.07 299.654 76.97C299.461 76.87 299.241 76.82 298.994 76.82C298.748 76.82 298.528 76.87 298.334 76.97C298.141 77.07 297.988 77.2067 297.874 77.38C297.761 77.5467 297.704 77.74 297.704 77.96C297.704 78.16 297.761 78.34 297.874 78.5C297.988 78.66 298.141 78.79 298.334 78.89C298.528 78.9833 298.748 79.03 298.994 79.03ZM298.994 75.86C299.208 75.86 299.398 75.82 299.564 75.74C299.738 75.66 299.871 75.5533 299.964 75.42C300.064 75.28 300.114 75.12 300.114 74.94C300.114 74.76 300.064 74.6 299.964 74.46C299.871 74.32 299.738 74.21 299.564 74.13C299.398 74.0433 299.208 74 298.994 74C298.781 74 298.588 74.0433 298.414 74.13C298.248 74.21 298.114 74.32 298.014 74.46C297.921 74.6 297.874 74.76 297.874 74.94C297.874 75.12 297.921 75.28 298.014 75.42C298.114 75.5533 298.248 75.66 298.414 75.74C298.588 75.82 298.781 75.86 298.994 75.86Z" fill="#D9D9D9"/>
<path d="M332.526 80L332.486 79.9L334.566 75.48L334.596 76.31C334.476 76.51 334.343 76.6867 334.196 76.84C334.056 76.9933 333.899 77.1267 333.726 77.24C333.559 77.3467 333.386 77.43 333.206 77.49C333.026 77.5433 332.843 77.57 332.656 77.57C332.276 77.57 331.926 77.47 331.606 77.27C331.286 77.07 331.029 76.8033 330.836 76.47C330.643 76.1367 330.546 75.7733 330.546 75.38C330.546 74.9067 330.653 74.4833 330.866 74.11C331.079 73.73 331.369 73.43 331.736 73.21C332.109 72.99 332.526 72.88 332.986 72.88C333.319 72.88 333.633 72.94 333.926 73.06C334.219 73.18 334.476 73.35 334.696 73.57C334.916 73.7833 335.089 74.0333 335.216 74.32C335.343 74.6 335.406 74.9 335.406 75.22C335.406 75.3867 335.389 75.5667 335.356 75.76C335.323 75.9467 335.266 76.16 335.186 76.4C335.113 76.6333 335.013 76.9033 334.886 77.21C334.759 77.51 334.603 77.86 334.416 78.26L333.586 80H332.526ZM332.886 76.57C333.146 76.57 333.379 76.5133 333.586 76.4C333.793 76.28 333.953 76.1233 334.066 75.93C334.186 75.73 334.246 75.5067 334.246 75.26C334.246 75 334.189 74.7667 334.076 74.56C333.963 74.3467 333.803 74.18 333.596 74.06C333.396 73.94 333.166 73.88 332.906 73.88C332.666 73.88 332.453 73.94 332.266 74.06C332.079 74.1733 331.929 74.3333 331.816 74.54C331.709 74.74 331.656 74.9767 331.656 75.25C331.656 75.4833 331.709 75.7 331.816 75.9C331.929 76.1 332.079 76.2633 332.266 76.39C332.453 76.51 332.659 76.57 332.886 76.57Z" fill="#D9D9D9"/>
<path d="M25 42.9647L46.6745 51.4334C54.098 54.8905 62.8359 53.9844 69.3812 49.0793L83.6634 38.3758C91.1322 32.7796 101.335 32.4552 109.147 37.5663C119.862 44.577 134.313 41.0877 140.598 29.9724L148.872 15.3408C156.706 1.48655 176.289 0.214902 185.872 12.9391L190.951 19.6847C195.127 25.2321 201.692 28.4974 208.662 28.4974H223.75C228.153 28.4974 232.456 29.8025 236.108 32.2467L264 42.9647" stroke="#5500FF" stroke-width="0.5" stroke-miterlimit="10" stroke-linecap="round" stroke-linejoin="round"/>
<path d="M59.04 49.9268C60.8711 49.927 62.3496 51.4015 62.3496 53.2139C62.3493 55.026 60.871 56.4998 59.04 56.5C57.2089 56.5 55.7298 55.0261 55.7295 53.2139C55.7295 51.4014 57.2087 49.9268 59.04 49.9268Z" fill="#5500FF" stroke="#5500FF"/>
<path d="M93.8235 30.634C95.6542 30.633 97.1331 32.1084 97.1331 33.9211C97.1328 35.7332 95.6544 37.2071 93.8235 37.2073C91.9924 37.2073 90.5132 35.7334 90.5129 33.9211C90.5129 32.1087 91.9922 30.634 93.8235 30.634Z" fill="#5500FF" stroke="#5500FF"/>
<path d="M128.609 35.9165C130.438 35.9167 131.918 37.3906 131.918 39.2026C131.918 41.015 130.44 42.4895 128.609 42.4897C126.777 42.4897 125.298 41.0151 125.298 39.2026C125.298 37.3904 126.778 35.9165 128.609 35.9165Z" fill="#5500FF" stroke="#5500FF"/>
<path d="M163.392 1.35791C165.222 1.35686 166.701 2.83156 166.701 4.64404C166.701 6.45637 165.223 7.93092 163.392 7.93115C161.56 7.93115 160.081 6.45651 160.081 4.64404C160.081 2.8318 161.56 1.35791 163.392 1.35791Z" fill="#5500FF" stroke="#5500FF"/>
<path d="M198.174 21.9341C200.005 21.9343 201.484 23.4089 201.484 25.2212C201.484 27.0333 200.005 28.5071 198.174 28.5073C196.343 28.5073 194.864 27.0334 194.864 25.2212C194.864 23.4087 196.343 21.9341 198.174 21.9341Z" fill="#5500FF" stroke="#5500FF"/>
<path d="M232.961 27.4124C234.792 27.4126 236.27 28.8864 236.27 30.6985C236.27 32.5108 234.792 33.9854 232.961 33.9856C231.129 33.9856 229.65 32.5109 229.65 30.6985C229.65 28.8862 231.13 27.4124 232.961 27.4124Z" fill="#5500FF" stroke="#5500FF"/>
</svg>
