<svg width="25" height="24" viewBox="0 0 25 24" fill="none" xmlns="http://www.w3.org/2000/svg">
<g clip-path="url(#clip0_325_1844)">
<path d="M14.6601 15.9282L16.8071 19.6469C17.2213 20.3643 16.9755 21.2817 16.258 21.6959C15.5406 22.1101 14.6232 21.8643 14.209 21.1469L11.5555 16.5508M19.9543 4.83011L20.3203 3.46408M21.9543 8.29422L23.3203 8.66025M8.59809 17.1603L19.2168 14.7288C20.5285 14.4284 21.1753 12.9446 20.5025 11.7792L16.2104 4.34513C15.5376 3.1798 13.9291 2.998 13.0132 3.98376L5.59809 11.9641L8.59809 17.1603ZM5.84812 12.3971L8.34812 16.7272C8.76233 17.4447 8.51652 18.362 7.79908 18.7763C7.08164 19.1905 6.16425 18.9447 5.75004 18.2272L3.25004 13.8971C2.83583 13.1797 3.08164 12.2623 3.79908 11.8481C4.51652 11.4338 5.4339 11.6797 5.84812 12.3971Z" stroke="#28303F" stroke-width="1.5" stroke-linecap="round" stroke-linejoin="round"/>
</g>
<defs>
<clipPath id="clip0_325_1844">
<rect width="24" height="24" fill="white" transform="translate(0.5)"/>
</clipPath>
</defs>
</svg>
