<svg width="25" height="24" viewBox="0 0 25 24" fill="none" xmlns="http://www.w3.org/2000/svg">
<g clip-path="url(#clip0_325_1863)">
<path d="M16.8077 19.6466C17.2218 20.3638 16.9759 21.281 16.2589 21.6954C15.5414 22.1096 14.6233 21.864 14.2091 21.1466L12.3057 17.8497L15.3653 17.1495L16.8077 19.6466ZM3.79891 11.8477C4.51635 11.4335 5.43352 11.6801 5.84774 12.3975L8.34774 16.7276C8.76188 17.4451 8.51632 18.3623 7.79891 18.7765C7.0816 19.1904 6.16432 18.9448 5.75008 18.2276L3.25008 13.8975C2.83588 13.1801 3.08151 12.262 3.79891 11.8477ZM13.171 4.07431C14.0868 3.08864 15.6953 3.2706 16.3682 4.43563L20.6602 11.8702C21.333 13.0355 20.6867 14.519 19.3751 14.8194L10.1407 16.9337C10.0765 16.6369 9.96572 16.3446 9.80575 16.0675L7.30575 11.7374C7.14575 11.4603 6.94767 11.2188 6.72274 11.0147L13.171 4.07431ZM21.2296 8.10067C21.3368 7.70064 21.7485 7.46236 22.1485 7.56942L23.5147 7.93563C23.9148 8.04284 24.1522 8.45448 24.045 8.85458C23.9378 9.25463 23.5261 9.49205 23.1261 9.38485L21.7608 9.01864C21.3609 8.91148 21.1227 8.5006 21.2296 8.10067ZM19.5958 3.26962C19.7031 2.86971 20.1147 2.63217 20.5147 2.73935C20.9148 2.84655 21.1522 3.25819 21.045 3.65829L20.6788 5.0245C20.5715 5.4243 20.1607 5.66166 19.7608 5.55477C19.3607 5.44757 19.1224 5.03593 19.2296 4.63583L19.5958 3.26962Z" fill="#5500FF"/>
</g>
<defs>
<clipPath id="clip0_325_1863">
<rect width="24" height="24" fill="white" transform="translate(0.5)"/>
</clipPath>
</defs>
</svg>
