<svg width="395" height="230" viewBox="0 0 395 230" fill="none" xmlns="http://www.w3.org/2000/svg">
<g filter="url(#filter0_d_935_1113)">
<path d="M350.435 26H44.5652C36.5211 26 30 31.2131 30 37.6438V184.356C30 190.787 36.5211 196 44.5652 196H350.435C358.479 196 365 190.787 365 184.356V37.6438C365 31.2131 358.479 26 350.435 26Z" fill="#5500FF"/>
<mask id="mask0_935_1113" style="mask-type:alpha" maskUnits="userSpaceOnUse" x="30" y="26" width="335" height="170">
<path d="M350.435 26H44.5652C36.5211 26 30 31.2131 30 37.6438V184.356C30 190.787 36.5211 196 44.5652 196H350.435C358.479 196 365 190.787 365 184.356V37.6438C365 31.2131 358.479 26 350.435 26Z" fill="#DAEBFF"/>
</mask>
<g mask="url(#mask0_935_1113)">
<path d="M77.0219 294.477C176.999 294.477 258.047 229.685 258.047 149.761C258.047 69.8359 176.999 5.04419 77.0219 5.04419C-22.9554 5.04419 -104.003 69.8359 -104.003 149.761C-104.003 229.685 -22.9554 294.477 77.0219 294.477Z" fill="#5500FF"/>
<path d="M356.679 132.457C410.69 132.457 454.474 97.4548 454.474 54.2771C454.474 11.0994 410.69 -23.9031 356.679 -23.9031C302.668 -23.9031 258.884 11.0994 258.884 54.2771C258.884 97.4548 302.668 132.457 356.679 132.457Z" fill="#28303F"/>
<path d="M321.236 160.908C322.733 160.908 323.944 161.187 324.708 161.44L324.183 164.141L323.831 164.006C323.13 163.754 322.206 163.502 320.949 163.529C319.421 163.529 318.737 164.074 318.721 164.606C318.721 165.191 319.55 165.578 320.901 166.15C323.132 167.041 324.164 168.131 324.15 169.554C324.117 172.149 321.476 173.826 317.416 173.826C315.681 173.81 314.009 173.506 313.101 173.16L313.642 170.352L314.151 170.551C315.41 171.018 316.239 171.216 317.782 171.216C318.896 171.216 320.089 170.83 320.105 169.994C320.105 169.449 319.596 169.051 318.1 168.437C316.635 167.839 314.678 166.842 314.709 165.045C314.726 162.611 317.416 160.908 321.236 160.908ZM337.746 173.81H334.165L333.585 171.239H329.042L327.924 173.8H323.864L329.61 161.969C330.01 161.158 330.711 160.931 331.633 160.931H334.626L337.746 173.81ZM310.681 173.8H306.812L309.232 160.891H313.1L310.681 173.8ZM303.579 160.892H307.672L301.59 173.787H297.496L294.025 162.69C296.478 163.767 298.675 165.936 299.376 167.932L299.788 169.662L303.579 160.891V160.892ZM331.727 164.472C331.714 164.508 330.246 168.658 330.168 168.652H332.905L331.727 164.472Z" fill="white"/>
<path d="M298.099 162.649C297.822 161.608 296.939 160.906 295.739 160.891H290.109L290.051 161.144C294.443 162.19 298.129 165.409 299.325 168.436L298.099 162.649Z" fill="white"/>
</g>
</g>
<defs>
<filter id="filter0_d_935_1113" x="0" y="0" width="395" height="230" filterUnits="userSpaceOnUse" color-interpolation-filters="sRGB">
<feFlood flood-opacity="0" result="BackgroundImageFix"/>
<feColorMatrix in="SourceAlpha" type="matrix" values="0 0 0 0 0 0 0 0 0 0 0 0 0 0 0 0 0 0 127 0" result="hardAlpha"/>
<feOffset dy="4"/>
<feGaussianBlur stdDeviation="15"/>
<feColorMatrix type="matrix" values="0 0 0 0 0.211765 0 0 0 0 0.160784 0 0 0 0 0.717647 0 0 0 0.07 0"/>
<feBlend mode="normal" in2="BackgroundImageFix" result="effect1_dropShadow_935_1113"/>
<feBlend mode="normal" in="SourceGraphic" in2="effect1_dropShadow_935_1113" result="shape"/>
</filter>
</defs>
</svg>
