<svg width="24" height="24" viewBox="0 0 24 24" fill="none" xmlns="http://www.w3.org/2000/svg">
<path d="M12 2.00015C17.5228 2.00015 22 6.4773 22 12.0002C22 17.523 17.5228 22.0002 12 22.0002C6.47715 22.0002 2 17.523 2 12.0002C2 6.4773 6.47715 2.00015 12 2.00015ZM17.5547 10.5949C17.4414 10.1965 17.0263 9.96502 16.6279 10.0783C16.2296 10.1915 15.9982 10.6067 16.1113 11.005C16.2015 11.3221 16.25 11.6556 16.25 12.0002C16.25 14.1154 14.3968 15.9171 12 15.9171C11.186 15.9171 10.4291 15.7067 9.78711 15.3449C9.51024 15.189 9.16515 15.2238 8.92578 15.4328C8.68638 15.6418 8.60537 15.9792 8.72266 16.2746L9.51758 18.2765C9.67044 18.6615 10.1062 18.8503 10.4912 18.6974C10.8761 18.5446 11.0638 18.1087 10.9111 17.7238L10.7373 17.2853C11.1441 17.3712 11.5669 17.4171 12 17.4171C15.126 17.4171 17.75 15.0396 17.75 12.0002C17.75 11.515 17.6822 11.0436 17.5547 10.5949ZM14.4824 5.72379C14.3296 5.33881 13.8938 5.15003 13.5088 5.30289C13.1239 5.45574 12.9362 5.89163 13.0889 6.27652L13.2627 6.71402C12.8559 6.62816 12.4331 6.58316 12 6.58316C8.87394 6.58316 6.25 8.96071 6.25 12.0002C6.25 12.4853 6.31776 12.9567 6.44531 13.4054C6.55865 13.8037 6.9737 14.0343 7.37207 13.9211C7.77024 13.8077 8.00169 13.3935 7.88867 12.9953C7.79853 12.6782 7.75 12.3447 7.75 12.0002C7.75 9.88493 9.60321 8.08316 12 8.08316C12.814 8.08316 13.5709 8.29363 14.2129 8.65543C14.4897 8.81131 14.8349 8.77651 15.0742 8.56754C15.3136 8.35851 15.3946 8.02112 15.2773 7.72574L14.4824 5.72379Z" fill="#28303F"/>
</svg>
