<svg width="25" height="24" viewBox="0 0 25 24" fill="none" xmlns="http://www.w3.org/2000/svg">
<path d="M19.5 2H21.5C22.0523 2 22.5 2.44772 22.5 3V5M21.5 3C13.5585 9.39136 9.44212 11.1129 2.5 12M18.5 10V20C18.5 21.1046 19.3954 22 20.5 22C21.6046 22 22.5 21.1046 22.5 20V10C22.5 8.89543 21.6046 8 20.5 8C19.3954 8 18.5 8.89543 18.5 10ZM2.5 18L2.5 20C2.5 21.1046 3.39543 22 4.5 22C5.60457 22 6.5 21.1046 6.5 20L6.5 18C6.5 16.8954 5.60457 16 4.5 16C3.39543 16 2.5 16.8954 2.5 18ZM10.5 14V20C10.5 21.1046 11.3954 22 12.5 22C13.6046 22 14.5 21.1046 14.5 20V14C14.5 12.8954 13.6046 12 12.5 12C11.3954 12 10.5 12.8954 10.5 14Z" stroke="#28303F" stroke-width="1.5" stroke-linecap="round" stroke-linejoin="round"/>
</svg>
