<svg width="25" height="24" viewBox="0 0 25 24" fill="none" xmlns="http://www.w3.org/2000/svg">
<path d="M4.50022 16C5.60479 16 6.50022 16.8954 6.50022 18V20C6.50022 21.1046 5.60479 22 4.50022 22C3.3957 21.9999 2.50022 21.1045 2.50022 20V18C2.50022 16.8955 3.3957 16.0001 4.50022 16ZM12.5002 12C13.6048 12 14.5002 12.8954 14.5002 14V20C14.5002 21.1046 13.6048 22 12.5002 22C11.3957 21.9999 10.5002 21.1045 10.5002 20V14C10.5002 12.8955 11.3957 12.0001 12.5002 12ZM20.5002 8C21.6048 8 22.5002 8.89543 22.5002 10V20C22.5002 21.1046 21.6048 22 20.5002 22C19.3957 21.9999 18.5002 21.1045 18.5002 20V10C18.5002 8.89547 19.3957 8.00007 20.5002 8ZM21.5002 1.25C22.4667 1.25 23.2502 2.0335 23.2502 3V5C23.2502 5.41421 22.9144 5.75 22.5002 5.75C22.086 5.74996 21.7502 5.41419 21.7502 5V3.76074C17.8672 6.87125 14.856 8.89198 11.9406 10.2441C8.95908 11.627 6.11328 12.2946 2.59494 12.7441C2.18424 12.7964 1.80856 12.5055 1.75608 12.0947C1.70379 11.684 1.99474 11.3083 2.40549 11.2559C5.82899 10.8184 8.51248 10.1812 11.3098 8.88379C14.0189 7.6273 16.8682 5.73607 20.6125 2.75H19.5002C19.086 2.74996 18.7502 2.41419 18.7502 2C18.7502 1.58581 19.086 1.25004 19.5002 1.25H21.5002Z" fill="#5500FF"/>
</svg>
