<svg width="22" height="22" viewBox="0 0 22 22" fill="none" xmlns="http://www.w3.org/2000/svg">
<path d="M20.1663 12.8333L17.4723 10.8936C16.0723 9.88565 14.1591 9.98982 12.8769 11.1438L9.12242 14.5229C7.84021 15.6769 5.92702 15.781 4.5271 14.7731L1.83301 12.8333M5.49967 20.1667H16.4997C18.5247 20.1667 20.1663 18.525 20.1663 16.5V5.5C20.1663 3.47496 18.5247 1.83334 16.4997 1.83334H5.49967C3.47463 1.83334 1.83301 3.47496 1.83301 5.5V16.5C1.83301 18.525 3.47463 20.1667 5.49967 20.1667ZM10.083 7.79167C10.083 9.05732 9.05699 10.0833 7.79134 10.0833C6.52569 10.0833 5.49967 9.05732 5.49967 7.79167C5.49967 6.52602 6.52569 5.5 7.79134 5.5C9.05699 5.5 10.083 6.52602 10.083 7.79167Z" stroke="#373737" stroke-width="1.5" stroke-linecap="round"/>
</svg>
