<svg width="641" height="331" viewBox="0 0 641 331" fill="none" xmlns="http://www.w3.org/2000/svg">
<g clip-path="url(#clip0_119_1090)">
<path d="M174.604 168.175C176.204 166.373 178.236 165.143 180.41 164.139C185.856 161.622 191.537 159.772 197.366 158.364C204.045 156.753 210.788 155.526 217.64 154.932C218.702 154.839 219.78 154.945 220.851 154.954C220.873 155.123 220.903 155.294 220.925 155.463C220.356 155.597 219.795 155.808 219.216 155.86C209.595 156.729 200.152 158.518 190.896 161.302C186.766 162.546 182.771 164.156 178.973 166.204C178.016 166.719 177.2 167.479 176.285 168.076C175.856 168.355 175.36 168.528 174.896 168.746C174.795 168.56 174.699 168.371 174.604 168.175Z" fill="black" fill-opacity="0.75"/>
<path d="M213.034 161.242C217.457 158.581 222.599 157.645 227.524 155.692C224.981 153.253 221.765 152.061 219.528 149.338C221.116 149.557 226.929 153.27 230.271 156.126C227.249 157.105 224.382 157.995 221.539 158.959C218.765 159.902 216.023 160.921 213.266 161.904C213.187 161.68 213.111 161.461 213.034 161.242Z" fill="black" fill-opacity="0.75"/>
<path d="M153.62 252.987C154.864 253.272 154.894 254.183 154.775 255.193C154.711 255.744 154.504 256.397 154.702 256.847C155.66 258.985 154.79 260.51 153.223 261.86C152.948 262.1 152.659 262.317 152.411 262.517C152.365 262.719 152.289 262.87 152.318 262.997C153.165 266.767 150.521 269.673 147.283 270.539C145.647 270.976 144.024 271.273 142.323 270.976C139.758 270.531 137.716 269.515 137.234 266.606C135.212 266.243 132.984 266.457 131.781 264.342C131.119 263.174 130.633 261.962 131.254 260.637C128.668 258.223 128.611 257.754 130.399 253.974C129.236 251.296 128.108 248.604 126.893 245.956C126.518 245.144 126.226 244.291 124.989 244.114C117.972 243.129 113.165 239.029 110.009 232.911C106.781 226.658 105.778 219.998 107.56 213.155C109.174 206.955 113.113 202.359 118.4 198.817C124.366 194.821 130.867 193.684 137.842 194.944C142.817 195.848 147.451 197.638 151.162 201.166C157.508 207.193 160.144 214.616 159.085 223.331C158.407 228.891 156.052 233.644 152.26 237.734C151.722 238.314 151.317 239.012 150.84 239.664C151.633 241.646 152.46 243.514 153.131 245.435C153.953 247.783 153.712 248.343 151.417 249.323C150.15 249.866 148.799 250.232 147.46 250.585C142.736 251.832 138.02 253.106 133.263 254.209C131.842 254.54 131.174 255.522 130.537 256.504C129.738 257.75 130.865 259.3 132.501 259.309C133.219 259.315 133.971 259.182 134.658 258.961C140.144 257.218 145.75 255.793 150.884 253.093C151.851 252.584 152.826 252.034 153.663 251.344C154.271 250.843 154.655 250.075 155.101 249.479C155.688 250.3 155.696 250.911 154.905 251.8C154.529 252.224 154.094 252.601 153.689 252.997C147.264 256.187 140.589 258.717 133.583 260.303C132.574 260.534 132.252 260.996 132.529 262.172C133.331 262.148 134.135 262.248 134.874 262.073C139.131 261.07 143.414 260.122 147.604 258.894C149.386 258.374 151.071 257.338 152.631 256.293C153.703 255.586 154.605 254.476 153.62 252.987ZM144.471 250.165C146.583 249.586 148.714 249.095 150.782 248.397C152.461 247.829 152.631 247.373 152.07 245.803C151.607 244.502 151.134 243.182 150.472 241.971C149.414 240.042 149.885 238.478 151.327 237.031C151.584 236.77 151.84 236.508 152.074 236.229C158.175 228.968 159.796 220.738 156.836 211.808C154.139 203.681 148.224 198.728 140.023 196.583C130.321 194.043 121.757 196.233 114.644 203.382C111.286 206.757 108.848 210.693 108.209 215.572C107.239 222.931 108.701 229.657 113.125 235.69C116.126 239.779 120.029 242.368 125.107 242.961C126.379 243.111 127.093 243.696 127.57 244.782C128.362 246.589 129.159 248.393 129.992 250.183C130.509 251.296 131.091 252.37 131.669 253.511C133.802 252.894 135.745 252.337 137.642 251.787C137.666 251.535 137.732 251.378 137.688 251.259C136.325 247.561 135.064 243.823 133.548 240.188C132.144 236.822 129.893 234.063 126.72 232.119C125.603 231.434 124.509 230.68 123.506 229.835C120.461 227.265 120.76 224.633 124.256 222.747C124.447 222.643 124.651 222.55 124.855 222.47C126.794 221.689 128.923 221.552 130.853 220.657C131.556 220.332 132.587 220.597 133.438 220.745C133.988 220.841 134.497 221.212 134.871 221.392C137.358 218.181 138.432 218.075 142.2 220.409C142.61 220.173 143.042 219.911 143.485 219.668C145.528 218.557 146.865 218.971 147.996 221.027C149.144 223.124 148.439 225.043 147.293 226.796C146.261 228.376 145.106 229.928 143.779 231.258C141.553 233.497 141.265 236.084 141.909 238.949C142.754 242.639 143.598 246.329 144.471 250.165ZM127.594 222.814C126.652 223.094 125.869 223.227 125.178 223.55C122.009 225.035 121.757 226.881 124.454 229.13C125.572 230.066 126.81 230.863 128.037 231.653C130.556 233.279 132.529 235.414 133.824 238.091C134.931 240.388 135.845 242.776 136.762 245.157C137.536 247.182 138.189 249.258 138.947 251.473C140.548 251.095 141.932 250.766 143.41 250.414C143.282 249.692 143.204 249.122 143.07 248.565C142.332 245.516 141.53 242.486 140.838 239.43C140.096 236.145 140.212 233.023 142.917 230.514C143.447 230.02 143.934 229.463 144.351 228.871C145.27 227.562 146.184 226.244 147.01 224.871C147.611 223.871 147.516 222.76 147.098 221.69C146.64 220.505 145.767 219.981 144.76 220.268C143.393 220.649 142.861 221.445 143.069 222.793C143.115 223.08 143.218 223.366 143.232 223.652C143.288 224.705 142.788 225.338 141.949 225.296C141.085 225.256 140.608 224.615 140.743 223.609C140.791 223.248 140.884 222.888 141.007 222.547C141.339 221.622 140.938 221.025 140.206 220.507C138.582 219.356 137.214 219.844 136.408 221.903C136.861 222.47 137.339 223.015 137.758 223.601C138.253 224.294 138.595 225.137 137.895 225.793C137.418 226.238 136.496 226.694 136.02 226.511C135.415 226.277 134.869 225.463 134.641 224.786C134.406 224.075 134.579 223.222 134.577 222.295C133.184 221.958 131.899 221.176 130.515 222.125C131.091 223.123 131.693 223.96 132.077 224.886C132.549 226.019 132.117 227.04 131.273 227.872C130.499 228.639 129.069 228.9 128.226 228.471C127.131 227.911 126.987 226.89 127.065 225.842C127.133 224.981 127.357 224.13 127.594 222.814ZM153.903 257.083C147.46 261.21 140.017 261.995 132.748 263.702C133.853 265.366 135.479 265.424 137.039 265.182C140.489 264.639 143.927 263.977 147.346 263.239C148.684 262.95 149.988 262.404 151.23 261.819C153.464 260.755 154.229 259.353 153.903 257.083ZM138.425 266.42C138.586 268.197 139.68 269.071 141.272 269.569C143.78 270.36 146.192 269.953 148.497 268.948C150.636 268.014 151.779 265.453 151.322 263.434C147.035 264.429 142.741 265.421 138.425 266.42ZM130.37 224.047C130.241 223.977 129.725 223.484 129.202 223.479C128.931 223.478 128.587 224.317 128.396 224.822C128.244 225.211 128.152 225.703 128.259 226.094C128.388 226.59 128.645 227.295 129.012 227.421C129.435 227.566 130.171 227.31 130.536 226.974C131.329 226.24 131.286 225.318 130.37 224.047ZM136.079 225.668C137.331 224.381 137.315 224.321 135.635 223.453C135.783 224.189 135.896 224.764 136.079 225.668Z" fill="black" fill-opacity="0.75"/>
<path d="M91.8381 260.061C89.1809 263.27 86.7141 266.57 85.1683 270.454C83.6437 274.288 82.8321 278.282 82.5385 282.391C82.2423 286.538 82.2398 290.673 82.908 294.873C85.2048 290.605 86.1571 285.671 89.5007 281.978C87.2018 288.034 84.4412 293.9 82.6883 300.457C81.8145 297.292 79.0239 295.967 77.2508 293.755C76.6302 292.984 75.9726 292.247 75.5123 291.308C77.9126 292.294 79.2366 294.565 81.5723 296.177C81.557 295.314 81.5813 294.704 81.5234 294.104C80.9419 287.741 81.0269 281.413 82.5008 275.155C83.748 269.863 86.0871 265.125 89.7472 261.067C90.4667 260.282 90.4538 260.271 91.8381 260.061Z" fill="black" fill-opacity="0.75"/>
<path d="M223.027 239.911C219.209 240.522 215.724 241.08 212.026 241.671C212.862 240.078 214.379 240.282 215.588 239.954C216.905 239.595 218.257 239.384 220.08 239.01C216.299 237.85 212.995 236.734 209.638 235.83C205.693 234.765 201.725 233.738 197.711 232.957C194.929 232.418 192.066 232.12 189.231 232.088C187.487 232.066 185.737 232.75 183.879 233.139C183.604 232.489 184.234 232.201 184.672 231.948C186.673 230.818 188.907 230.701 191.075 230.936C194.553 231.311 198.073 231.694 201.448 232.574C207.805 234.23 214.073 236.243 220.38 238.096C220.491 238.126 220.641 238.027 221.036 237.918C220.086 235.349 218.294 233.223 217.382 230.676C220.397 233.031 221.761 236.371 223.027 239.911Z" fill="black" fill-opacity="0.75"/>
<path d="M153.005 136.337C155.398 132.822 157.787 129.323 160.272 125.674C161.585 127.362 161.882 129.562 162.797 131.461C163.725 133.384 164.5 135.377 165.142 137.433C163.432 135.711 162.457 133.577 161.393 130.898C157.602 141.887 154.475 152.518 154.513 163.861C153.241 163.918 153.382 163.065 153.413 162.52C153.56 159.895 153.691 157.266 154.007 154.663C154.939 146.999 157.27 139.683 159.684 132.392C159.913 131.702 160.281 131.057 160.589 130.396C160.975 129.565 160.888 128.85 160.065 128.24C157.844 131.009 156.393 134.362 153.531 136.597C153.476 136.642 153.284 136.483 153.005 136.337Z" fill="black" fill-opacity="0.75"/>
<path d="M97.2824 198.678C96.2089 199.079 95.686 198.314 95.0315 197.952C90.6243 195.522 86.2806 192.975 81.7906 190.706C79.08 189.335 76.1449 188.402 72.9787 187.144C73.3115 189.122 74.7743 190.341 74.4704 192.455C73.0465 191.194 72.8231 189.579 71.9104 188.444C70.9823 187.293 70.1319 186.059 69.0642 185.057C67.9708 184.032 66.6574 183.235 65.3413 182.27C71.6829 182.585 77.883 182.895 84.1296 183.208C82.6904 184.127 82.5155 184.172 77.0656 184.075C74.6634 184.032 72.268 183.86 69.759 183.74C70.3907 185.019 71.2903 185.653 72.5802 186.019C80.5853 188.303 87.8998 192.096 94.9105 196.504C95.7808 197.055 96.8405 197.478 97.2824 198.678Z" fill="black" fill-opacity="0.75"/>
<path d="M32.6812 261.329C34.2629 260.19 35.7828 258.955 37.4316 257.921C47.3684 251.72 57.9611 246.796 68.6251 242.007C68.765 241.945 69.0164 242.12 69.2823 242.211C69.133 243.332 68.1426 243.496 67.4232 243.836C64.2591 245.33 61.0589 246.751 57.8704 248.204C50.4745 251.57 43.489 255.691 36.5097 259.834C35.3445 260.531 34.4313 261.698 32.6812 261.329Z" fill="black" fill-opacity="0.75"/>
<path d="M27.9773 264.904C28.7312 261.245 34.6183 253.907 40.4267 249.192C40.202 250.476 39.7115 251.223 38.3731 252.686C36.1075 255.161 33.8473 257.645 31.6587 260.188C30.8624 261.112 30.2791 262.22 29.395 263.546C33.4505 263.563 36.9381 262.39 40.5637 261.488C40.5362 261.962 40.5869 262.322 40.5062 262.356C36.5702 264.045 32.4186 264.698 27.9773 264.904Z" fill="black" fill-opacity="0.75"/>
<path d="M165.882 206.291C170.554 201.976 175.119 197.508 181.538 195.797C181.641 195.92 181.75 196.044 181.853 196.167C181.617 196.454 181.434 196.898 181.129 196.999C175.805 198.837 171.777 202.618 167.488 206.01C167.105 206.313 166.638 206.513 166.21 206.761C166.105 206.601 165.996 206.445 165.882 206.291Z" fill="black" fill-opacity="0.75"/>
<path d="M126.622 185.778C126.063 183.636 125.386 181.518 124.981 179.35C124.498 176.775 124.229 174.158 123.929 171.552C123.852 170.888 123.776 170.06 125.047 169.828C124.731 175.31 126.8 180.382 127.171 185.675C126.988 185.705 126.807 185.741 126.622 185.778Z" fill="black" fill-opacity="0.75"/>
<path d="M81.4426 211.06C81.9542 210.946 82.4726 210.704 82.9713 210.742C86.8612 211.08 90.7107 211.599 94.283 213.256C94.2554 213.403 94.2277 213.551 94.1954 213.702C89.9905 212.98 85.783 212.255 81.5781 211.534C81.5323 211.378 81.4837 211.218 81.4426 211.06Z" fill="black" fill-opacity="0.75"/>
<path d="M180.223 228.056C179.839 228.228 179.528 228.482 179.233 228.471C177.375 228.414 167.884 225.458 166.68 224.61C168.225 224.408 178.664 227.018 180.223 228.056Z" fill="black" fill-opacity="0.75"/>
<path d="M151.287 186.736C152.979 182.736 156.461 179.164 159.472 178.479C159.138 180.008 157.474 180.016 156.789 181.057C156.042 182.197 155.017 183.159 154.113 184.201C153.278 185.166 152.445 186.124 151.61 187.089C151.498 186.972 151.394 186.857 151.287 186.736Z" fill="black" fill-opacity="0.75"/>
<path d="M100.897 234.533C98.681 237.832 96.0346 240.289 93.5573 242.886C93.4567 242.994 93.0645 242.825 92.7671 242.777C93.7893 240.669 98.7263 235.586 100.897 234.533Z" fill="black" fill-opacity="0.75"/>
<path d="M106.468 193.337C103.481 191.336 100.497 189.34 97.5229 187.318C97.4188 187.246 97.4895 186.923 97.4595 186.382C101.346 187.714 103.993 190.388 106.756 192.902C106.662 193.044 106.566 193.193 106.468 193.337Z" fill="black" fill-opacity="0.75"/>
</g>
<g clip-path="url(#clip1_119_1090)">
<path d="M559.38 74.464C558.321 73.4168 557.098 72.4969 556.244 71.307C548.336 60.2258 538.2 51.5525 527.386 43.655C517.748 36.6122 507.359 31.0748 496.029 27.6853C491.619 26.3688 487.102 25.4868 482.212 24.2972C486.889 20.3106 492.38 17.3617 494.567 11.1098C490.164 14.6712 486.047 18.683 481.282 21.6666C476.507 24.6565 471.081 26.6336 465.48 29.2719C474.111 33.4047 483.751 35.7154 488.63 45.391C489.388 40.2031 486.517 37.4842 472.327 29.2799C474.803 27.5708 477.05 26.1597 480.244 26.5656C498.186 28.8264 514.071 36.4046 528.676 47.3354C537.208 53.7222 544.968 61.0339 551.954 69.0777C559.055 77.2489 565.482 85.9165 570.907 95.4061C578.305 108.322 584.365 121.712 588.436 135.933C593.251 152.762 595.275 169.804 592.762 186.905C589.973 205.967 582.53 222.791 569.431 236.621C568.631 237.468 567.904 238.402 567.202 239.333C567.061 239.528 567.146 239.898 567.11 240.379C568.431 241.327 569.239 240.281 569.975 239.534C577.245 232.18 582.932 223.673 587.247 214.184C596.112 194.725 597.665 174.075 594.459 152.654C591.902 135.569 585.915 119.527 578.401 103.953C577.082 101.22 575.109 98.8029 573.541 96.1874C572.867 95.066 572.482 93.7709 571.963 92.5689C567.777 86.5329 563.582 80.5031 559.38 74.464Z" fill="black" fill-opacity="0.6"/>
</g>
<defs>
<clipPath id="clip0_119_1090">
<rect width="229.581" height="130.31" fill="white" transform="translate(0.762695 217.767) rotate(-30)"/>
</clipPath>
<clipPath id="clip1_119_1090">
<rect width="88.41" height="232.459" fill="white" transform="matrix(0.820876 -0.571106 -0.571106 -0.820876 567.758 241.311)"/>
</clipPath>
</defs>
</svg>
