<svg width="64" height="64" viewBox="0 0 64 64" fill="none" xmlns="http://www.w3.org/2000/svg">
<g clip-path="url(#clip0_338_3956)">
<g filter="url(#filter0_dii_338_3956)">
<rect width="64" height="64" rx="12.8" fill="url(#paint0_linear_338_3956)"/>
</g>
<g filter="url(#filter1_d_338_3956)">
<rect x="7.9834" y="10.2146" width="48.0614" height="65.9006" rx="3.78413" transform="rotate(0.113586 7.9834 10.2146)" fill="#FBFBFE"/>
</g>
<path d="M7.97547 14.2148C7.97985 12.0057 9.77426 10.2184 11.9834 10.2228L52.0447 10.3022C54.2539 10.3066 56.0412 12.101 56.0368 14.3101L55.9942 35.8022C55.9898 38.0114 54.1954 39.7987 51.9863 39.7943L11.9249 39.7149C9.71579 39.7105 7.92848 37.9161 7.93286 35.707L7.97547 14.2148Z" fill="url(#paint1_linear_338_3956)"/>
<mask id="mask0_338_3956" style="mask-type:alpha" maskUnits="userSpaceOnUse" x="7" y="10" width="50" height="30">
<path d="M7.9759 13.999C7.98004 11.9091 9.67761 10.2182 11.7675 10.2223L52.2606 10.3026C54.3505 10.3068 56.0414 12.0043 56.0372 14.0942L55.9938 36.0181C55.9896 38.108 54.2921 39.7989 52.2021 39.7947L11.7091 39.7145C9.61914 39.7103 7.92829 38.0127 7.93243 35.9228L7.9759 13.999Z" fill="url(#paint2_linear_338_3956)"/>
</mask>
<g mask="url(#mask0_338_3956)">
<g style="mix-blend-mode:color-dodge">
<rect width="35.2742" height="35.3979" rx="3.78413" transform="matrix(0.57485 0.818259 -0.733805 0.67936 37.6064 14.1763)" fill="white" fill-opacity="0.2"/>
</g>
<g style="mix-blend-mode:color-dodge">
<rect width="24.5548" height="29.2545" rx="3.78413" transform="matrix(0.57485 0.818259 -0.733805 0.67936 24.6426 19.2676)" fill="white" fill-opacity="0.1"/>
</g>
<g style="mix-blend-mode:color-dodge">
<rect width="31.5472" height="38.1486" rx="3.78413" transform="matrix(0.57485 0.818259 -0.733805 0.67936 50.3057 10.8804)" fill="white" fill-opacity="0.47"/>
</g>
</g>
<rect x="10.8613" y="46.0483" width="16.603" height="2.62153" rx="1.31077" transform="rotate(0.113586 10.8613 46.0483)" fill="#E1DFFF"/>
<rect x="10.8525" y="50.4175" width="37.5753" height="2.62153" rx="1.31077" transform="rotate(0.113586 10.8525 50.4175)" fill="#EDECFF"/>
<rect x="10.8428" y="55.6606" width="27.963" height="2.62153" rx="1.31077" transform="rotate(0.113586 10.8428 55.6606)" fill="#EDECFF"/>
</g>
<defs>
<filter id="filter0_dii_338_3956" x="-2.05714" y="-1.14286" width="68.1143" height="68.1143" filterUnits="userSpaceOnUse" color-interpolation-filters="sRGB">
<feFlood flood-opacity="0" result="BackgroundImageFix"/>
<feColorMatrix in="SourceAlpha" type="matrix" values="0 0 0 0 0 0 0 0 0 0 0 0 0 0 0 0 0 0 127 0" result="hardAlpha"/>
<feOffset dy="0.914286"/>
<feGaussianBlur stdDeviation="1.02857"/>
<feComposite in2="hardAlpha" operator="out"/>
<feColorMatrix type="matrix" values="0 0 0 0 0.215023 0 0 0 0 0.2048 0 0 0 0 0.81817 0 0 0 0.24 0"/>
<feBlend mode="normal" in2="BackgroundImageFix" result="effect1_dropShadow_338_3956"/>
<feBlend mode="normal" in="SourceGraphic" in2="effect1_dropShadow_338_3956" result="shape"/>
<feColorMatrix in="SourceAlpha" type="matrix" values="0 0 0 0 0 0 0 0 0 0 0 0 0 0 0 0 0 0 127 0" result="hardAlpha"/>
<feOffset dy="1.82857"/>
<feGaussianBlur stdDeviation="0.594286"/>
<feComposite in2="hardAlpha" operator="arithmetic" k2="-1" k3="1"/>
<feColorMatrix type="matrix" values="0 0 0 0 1 0 0 0 0 1 0 0 0 0 1 0 0 0 0.5 0"/>
<feBlend mode="normal" in2="shape" result="effect2_innerShadow_338_3956"/>
<feColorMatrix in="SourceAlpha" type="matrix" values="0 0 0 0 0 0 0 0 0 0 0 0 0 0 0 0 0 0 127 0" result="hardAlpha"/>
<feOffset dy="-0.914286"/>
<feGaussianBlur stdDeviation="1.07429"/>
<feComposite in2="hardAlpha" operator="arithmetic" k2="-1" k3="1"/>
<feColorMatrix type="matrix" values="0 0 0 0 0.312871 0 0 0 0 0.273746 0 0 0 0 0.740791 0 0 0 0.24 0"/>
<feBlend mode="normal" in2="effect2_innerShadow_338_3956" result="effect3_innerShadow_338_3956"/>
</filter>
<filter id="filter1_d_338_3956" x="-12.8934" y="-3.9778" width="89.6844" height="107.488" filterUnits="userSpaceOnUse" color-interpolation-filters="sRGB">
<feFlood flood-opacity="0" result="BackgroundImageFix"/>
<feColorMatrix in="SourceAlpha" type="matrix" values="0 0 0 0 0 0 0 0 0 0 0 0 0 0 0 0 0 0 127 0" result="hardAlpha"/>
<feOffset dy="6.55383"/>
<feGaussianBlur stdDeviation="10.3769"/>
<feColorMatrix type="matrix" values="0 0 0 0 0.415686 0 0 0 0 0.207843 0 0 0 0 1 0 0 0 0.32 0"/>
<feBlend mode="normal" in2="BackgroundImageFix" result="effect1_dropShadow_338_3956"/>
<feBlend mode="normal" in="SourceGraphic" in2="effect1_dropShadow_338_3956" result="shape"/>
</filter>
<linearGradient id="paint0_linear_338_3956" x1="32" y1="0" x2="32" y2="64" gradientUnits="userSpaceOnUse">
<stop stop-color="#E1DFFF"/>
<stop offset="1" stop-color="#EDECFF"/>
</linearGradient>
<linearGradient id="paint1_linear_338_3956" x1="32.0141" y1="10.2625" x2="31.9556" y2="39.7546" gradientUnits="userSpaceOnUse">
<stop stop-color="#897FFF"/>
<stop offset="1" stop-color="#4A3AFF"/>
</linearGradient>
<linearGradient id="paint2_linear_338_3956" x1="32.0141" y1="10.2625" x2="31.9556" y2="39.7546" gradientUnits="userSpaceOnUse">
<stop stop-color="#897FFF"/>
<stop offset="1" stop-color="#4A3AFF"/>
</linearGradient>
<clipPath id="clip0_338_3956">
<rect width="64" height="64" rx="12.8" fill="white"/>
</clipPath>
</defs>
</svg>
