<svg width="24" height="24" viewBox="0 0 24 24" fill="none" xmlns="http://www.w3.org/2000/svg">
<path d="M14 3.25015C16.6234 3.25015 18.75 5.3768 18.75 8.00015C18.75 8.41437 18.4142 8.75015 18 8.75015C17.5858 8.75015 17.25 8.41437 17.25 8.00015C17.25 6.20523 15.7949 4.75015 14 4.75015H9.46387C10.2613 5.59981 10.75 6.74294 10.75 8.00015V16.0002C10.75 17.2574 10.2613 18.4005 9.46387 19.2502H14C15.7949 19.2502 17.25 17.7951 17.25 16.0002C17.25 15.5859 17.5858 15.2502 18 15.2502C18.4142 15.2502 18.75 15.5859 18.75 16.0002C18.75 18.6235 16.6234 20.7502 14 20.7502H6.75C4.12665 20.7502 2 18.6235 2 16.0002V8.00015C2 5.3768 4.12665 3.25015 6.75 3.25015H14ZM19.1465 9.46988C19.4394 9.17699 19.9141 9.177 20.207 9.46988L21.5 10.7628C22.1833 11.4462 22.1833 12.5541 21.5 13.2375L20.207 14.5304C19.9141 14.8233 19.4394 14.8233 19.1465 14.5304C18.8536 14.2375 18.8536 13.7628 19.1465 13.4699L19.8662 12.7502H13.75C13.3358 12.7502 13 12.4144 13 12.0002C13 11.5859 13.3358 11.2502 13.75 11.2502H19.8662L19.1465 10.5304C18.8536 10.2375 18.8536 9.76277 19.1465 9.46988Z" fill="#28303F"/>
</svg>
