<svg width="48" height="49" viewBox="0 0 48 49" fill="none" xmlns="http://www.w3.org/2000/svg">
<path d="M32.1902 26.56L31.0602 24.68C30.8102 24.27 30.5902 23.48 30.5902 23V21.13C30.5902 17.5 27.6402 14.55 24.0202 14.55C20.3902 14.56 17.4402 17.5 17.4402 21.13V22.99C17.4402 23.47 17.2202 24.26 16.9802 24.67L15.8502 26.55C15.4202 27.28 15.3202 28.11 15.5902 28.83C15.8602 29.56 16.4702 30.14 17.2702 30.4C18.3502 30.76 19.4402 31.02 20.5502 31.21C20.6602 31.23 20.7702 31.24 20.8802 31.26C21.0202 31.28 21.1702 31.3 21.3202 31.32C21.5802 31.36 21.8402 31.39 22.1102 31.41C22.7402 31.47 23.3802 31.5 24.0202 31.5C24.6502 31.5 25.2802 31.47 25.9002 31.41C26.1302 31.39 26.3602 31.37 26.5802 31.34C26.7602 31.32 26.9402 31.3 27.1202 31.27C27.2302 31.26 27.3402 31.24 27.4502 31.22C28.5702 31.04 29.6802 30.76 30.7602 30.4C31.5302 30.14 32.1202 29.56 32.4002 28.82C32.6802 28.07 32.6002 27.25 32.1902 26.56ZM24.7502 22.5C24.7502 22.92 24.4102 23.26 23.9902 23.26C23.5702 23.26 23.2302 22.92 23.2302 22.5V19.4C23.2302 18.98 23.5702 18.64 23.9902 18.64C24.4102 18.64 24.7502 18.98 24.7502 19.4V22.5Z" fill="#292D32"/>
<path d="M26.8297 32.51C26.4097 33.67 25.2997 34.5 23.9997 34.5C23.2097 34.5 22.4297 34.18 21.8797 33.61C21.5597 33.31 21.3197 32.91 21.1797 32.5C21.3097 32.52 21.4397 32.53 21.5797 32.55C21.8097 32.58 22.0497 32.61 22.2897 32.63C22.8597 32.68 23.4397 32.71 24.0197 32.71C24.5897 32.71 25.1597 32.68 25.7197 32.63C25.9297 32.61 26.1397 32.6 26.3397 32.57C26.4997 32.55 26.6597 32.53 26.8297 32.51Z" fill="#292D32"/>
</svg>
