<svg width="24" height="24" viewBox="0 0 24 24" fill="none" xmlns="http://www.w3.org/2000/svg">
<path d="M14.5773 19.5001C14.8107 19.5003 14.9999 19.6895 15.0001 19.9229C15.0001 19.9735 14.9917 20.0245 14.9728 20.0714C14.5154 21.1991 13.3566 22.0001 12.0001 22.0001C10.6436 22 9.48578 21.199 9.02842 20.0714C9.00937 20.0244 9.0001 19.9736 9.0001 19.9229C9.00034 19.6894 9.1903 19.5001 9.42393 19.5001H14.5773ZM12.0001 2.00008C13.2536 2.00008 14.2704 3.01614 14.2706 4.26961V4.3741C16.4127 5.10774 17.9982 6.85128 18.2394 8.97566L18.6866 12.9151C18.7672 13.6247 19.0672 14.3016 19.5528 14.8721C20.6496 16.1609 19.6057 18 17.7774 18.0001H6.22276C4.39453 17.9999 3.35137 16.1608 4.44834 14.8721C4.93389 14.3017 5.23305 13.6247 5.31358 12.9151L5.76084 8.97566C6.00198 6.85111 7.58817 5.10763 9.73057 4.3741V4.26961C9.73079 3.01617 10.7466 2.00013 12.0001 2.00008Z" fill="#28303F"/>
</svg>
