<svg width="25" height="24" viewBox="0 0 25 24" fill="none" xmlns="http://www.w3.org/2000/svg">
<path d="M12.5 2C14.1445 2 15.7636 2.40557 17.214 3.18079C18.6643 3.956 19.9011 5.07694 20.8147 6.4443C21.7283 7.81166 22.2907 9.38324 22.4519 11.0198C22.613 12.6564 22.3681 14.3075 21.7388 15.8268M12.5 2V7.03563M12.5 2C10.5222 2 8.58879 2.58649 6.9443 3.6853C5.29981 4.78412 4.01809 6.3459 3.26121 8.17317C2.50433 10.0004 2.3063 12.0111 2.69215 13.9509C3.078 15.8907 4.03041 17.6725 5.42894 19.0711M21.7388 15.8268C21.1095 17.3462 20.1152 18.6868 18.8439 19.7301C17.5727 20.7734 16.0638 21.487 14.4509 21.8079C12.838 22.1287 11.1709 22.0468 9.59716 21.5694C8.02346 21.092 6.59178 20.2339 5.42894 19.0711M21.7388 15.8268C22.2413 14.6136 22.5 13.3132 22.5 12H17.4644C17.4644 12.6519 17.336 13.2975 17.0865 13.8998M21.7388 15.8268C21.2363 17.0401 20.4997 18.1425 19.5711 19.0711L16.0103 15.5103C16.4713 15.0494 16.837 14.5021 17.0865 13.8998M5.42894 19.0711L8.98967 15.5103M8.98967 15.5103C9.56695 16.0876 10.2777 16.5136 11.0589 16.7506C11.8402 16.9876 12.6678 17.0283 13.4685 16.869C14.2692 16.7097 15.0183 16.3554 15.6494 15.8375C16.2804 15.3196 16.7741 14.654 17.0865 13.8998M8.98967 15.5103C8.29539 14.8161 7.82258 13.9315 7.63102 12.9685C7.43947 12.0055 7.53778 11.0073 7.91353 10.1002C8.28927 9.1931 8.92556 8.41777 9.74195 7.87228C10.5583 7.32679 11.5181 7.03563 12.5 7.03563M17.0865 13.8998C17.3989 13.1455 17.5205 12.3259 17.4405 11.5134C17.3604 10.7009 17.0813 9.92075 16.6277 9.24194C16.1742 8.56314 15.5602 8.00666 14.8402 7.62182C14.1202 7.23697 13.3164 7.03563 12.5 7.03563" stroke="#28303F" stroke-width="1.5"/>
</svg>
