<svg width="25" height="24" viewBox="0 0 25 24" fill="none" xmlns="http://www.w3.org/2000/svg">
<path fill-rule="evenodd" clip-rule="evenodd" d="M14.8402 7.62173C14.3424 7.35563 13.8044 7.17726 13.25 7.09253V2.02808C14.6344 2.1322 15.9848 2.52369 17.214 3.1807C18.6643 3.95592 19.9011 5.07685 20.8147 6.44421C21.7284 7.81157 22.2907 9.38315 22.4519 11.0197C22.4594 11.0964 22.4661 11.1732 22.4719 11.2499H17.4074C17.2978 10.5326 17.0321 9.84697 16.6277 9.24186C16.1742 8.56305 15.5602 8.00658 14.8402 7.62173ZM6.9443 3.68522C8.38019 2.72579 10.0363 2.15695 11.75 2.02808V7.09253C11.0346 7.20186 10.3487 7.46678 9.74195 7.8722C8.92556 8.41769 8.28927 9.19302 7.91353 10.1001C7.53778 11.0073 7.43947 12.0054 7.63102 12.9684C7.77339 13.6841 8.07112 14.3565 8.49965 14.9397L4.91854 18.5208C3.79792 17.2179 3.02906 15.6446 2.69215 13.9508C2.3063 12.011 2.50433 10.0003 3.26121 8.17308C4.01809 6.34582 5.29981 4.78403 6.9443 3.68522ZM5.97921 19.5814C7.03174 20.4867 8.26345 21.1647 9.59718 21.5693C11.1709 22.0467 12.838 22.1286 14.4509 21.8078C16.0488 21.4899 17.5446 20.7865 18.8084 19.7591L14.3014 16.626C14.0323 16.7307 13.7537 16.8122 13.4685 16.8689C12.6678 17.0282 11.8402 16.9875 11.0589 16.7505C10.5188 16.5867 10.0123 16.3324 9.56032 16.0003L5.97921 19.5814ZM17.0865 13.8997C17.2399 13.5293 17.3473 13.1432 17.4074 12.7499H22.4719C22.3926 13.8043 22.1462 14.8431 21.7388 15.8267C21.2999 16.8863 20.6835 17.859 19.9194 18.7046L15.7155 15.7822C16.315 15.2725 16.7851 14.6274 17.0865 13.8997Z" fill="#5500FF"/>
</svg>
