<svg width="24" height="24" viewBox="0 0 24 24" fill="none" xmlns="http://www.w3.org/2000/svg">
<path d="M17.7808 3.53223C19.7542 3.77791 21.2816 5.46006 21.2817 7.5V17.5C21.2816 19.709 19.4908 21.5 17.2817 21.5H7.28174C5.07271 21.5 3.28191 19.709 3.28174 17.5V7.5C3.2819 5.46039 4.80876 3.77833 6.78174 3.53223C6.79904 5.45038 8.35949 7 10.2817 7H14.2817C16.204 7 17.7635 5.45038 17.7808 3.53223ZM8.28174 16.75C7.86752 16.75 7.53174 17.0858 7.53174 17.5C7.53174 17.9142 7.86752 18.25 8.28174 18.25H12.2817C12.696 18.25 13.0317 17.9142 13.0317 17.5C13.0317 17.0858 12.696 16.75 12.2817 16.75H8.28174ZM8.28174 12.75C7.86752 12.75 7.53174 13.0858 7.53174 13.5C7.53174 13.9142 7.86752 14.25 8.28174 14.25H16.2817C16.696 14.25 17.0317 13.9142 17.0317 13.5C17.0317 13.0858 16.696 12.75 16.2817 12.75H8.28174ZM8.28174 8.75C7.86752 8.75 7.53174 9.08579 7.53174 9.5C7.53174 9.91421 7.86752 10.25 8.28174 10.25H16.2817C16.696 10.25 17.0317 9.91421 17.0317 9.5C17.0317 9.08579 16.696 8.75 16.2817 8.75H8.28174ZM14.2817 1.5C15.3863 1.5 16.2817 2.39543 16.2817 3.5C16.2817 4.60457 15.3863 5.5 14.2817 5.5H10.2817C9.17717 5.5 8.28174 4.60457 8.28174 3.5C8.28174 2.39543 9.17717 1.5 10.2817 1.5H14.2817Z" fill="#28303F"/>
</svg>
