<svg width="32" height="32" viewBox="0 0 32 32" fill="none" xmlns="http://www.w3.org/2000/svg">
<rect width="32" height="32" rx="16" fill="#5500FF"/>
<path d="M10.6953 11.7419C9.86397 9.87255 11.8342 7.9906 13.665 8.90503L23.96 14.0496C25.5682 14.8532 25.5682 17.1473 23.96 17.9509L13.665 23.0945C11.8341 24.0092 9.86394 22.128 10.6953 20.2585L12.1953 16.8855C12.2242 16.8204 12.2502 16.7542 12.2725 16.6873H16C16.3795 16.6871 16.6875 16.3793 16.6875 15.9998C16.6873 15.6203 16.3794 15.3124 16 15.3123H12.2725C12.2502 15.2454 12.2242 15.179 12.1953 15.114L10.6953 11.7419ZM8.66602 17.1462C9.04571 17.1462 9.35352 17.454 9.35352 17.8337C9.35334 18.2133 9.0456 18.5212 8.66602 18.5212H6.83301C6.45342 18.5212 6.14568 18.2133 6.14551 17.8337C6.14551 17.454 6.45331 17.1462 6.83301 17.1462H8.66602ZM8.66602 13.4792C9.04571 13.4792 9.35352 13.7871 9.35352 14.1667C9.35352 14.5464 9.04571 14.8542 8.66602 14.8542H6.83301C6.45331 14.8542 6.14551 14.5464 6.14551 14.1667C6.14551 13.7871 6.45331 13.4792 6.83301 13.4792H8.66602Z" fill="white"/>
</svg>
