<svg width="25" height="24" viewBox="0 0 25 24" fill="none" xmlns="http://www.w3.org/2000/svg">
<path d="M13.2168 2.00011C13.9731 2.00011 14.658 2.42017 15.0362 3.04015C15.2201 3.34004 15.3431 3.70987 15.3125 4.09972C15.2921 4.39972 15.3834 4.70058 15.5469 4.98058C16.0682 5.83046 17.2238 6.15 18.1231 5.67003C19.1347 5.09037 20.4116 5.44015 20.9942 6.42979L21.6787 7.61046C22.2714 8.60044 21.9448 9.87056 20.9229 10.4405C20.0543 10.9506 19.7474 12.0806 20.2686 12.9405C20.4321 13.2104 20.6163 13.4402 20.9024 13.5802C21.2601 13.7702 21.5363 14.0702 21.7305 14.3702C22.1084 14.9901 22.0778 15.7502 21.71 16.42L20.9942 17.6202C20.616 18.2601 19.9111 18.6602 19.1856 18.6603C18.8281 18.6603 18.4295 18.5603 18.1026 18.3605C17.8369 18.1905 17.5301 18.13 17.2032 18.13C16.1914 18.13 15.3432 18.9603 15.3125 19.9503C15.3124 21.1001 14.3723 21.9999 13.1973 22.0001H11.8067C10.6214 22 9.68178 21.1001 9.68168 19.9503C9.66124 18.9603 8.81256 18.13 7.80082 18.13C7.4636 18.13 7.15688 18.1905 6.9014 18.3605C6.57446 18.5603 6.16574 18.6602 5.8184 18.6603C5.0826 18.6603 4.37719 18.2602 3.99906 17.6202L3.29398 16.42C2.91594 15.7701 2.89546 14.9902 3.27348 14.3702C3.43694 14.0703 3.74351 13.7702 4.09086 13.5802C4.37696 13.4402 4.56168 13.2105 4.73539 12.9405C5.24637 12.0805 4.93901 10.9505 4.07035 10.4405C3.05879 9.87056 2.73221 8.60038 3.31449 7.61046L3.99906 6.42979C4.5918 5.43999 5.85903 5.09023 6.8809 5.67003C7.76989 6.14997 8.92504 5.83035 9.44633 4.98058C9.60984 4.70058 9.70212 4.39972 9.68168 4.09972C9.66133 3.70985 9.7737 3.34005 9.96781 3.04015C10.346 2.42022 11.0304 2.02011 11.7764 2.00011H13.2168ZM12.5118 9.17979C10.9075 9.17998 9.60954 10.4401 9.60941 12.0099C9.60941 13.5798 10.9074 14.83 12.5118 14.8302C14.1162 14.8302 15.3838 13.5799 15.3838 12.0099C15.3837 10.44 14.1161 9.17979 12.5118 9.17979Z" fill="#5500FF"/>
</svg>
