<svg width="48" height="49" viewBox="0 0 48 49" fill="none" xmlns="http://www.w3.org/2000/svg">
<path d="M28.25 15.333C30.459 15.333 32.2498 17.124 32.25 19.333V24.6768C32.25 25.0062 32.2084 25.3312 32.1299 25.6455H28.583C26.1784 25.6457 24.2295 27.5954 24.2295 30V33.5469C23.9149 33.6255 23.5895 33.667 23.2598 33.667H19.75C17.541 33.667 15.7502 31.876 15.75 29.667V19.333C15.7502 17.124 17.541 15.333 19.75 15.333H28.25ZM31.4902 27.0205C31.3666 27.1914 31.2292 27.3538 31.0781 27.5049L26.0879 32.4951C25.9371 32.6459 25.7751 32.7828 25.6045 32.9062V30C25.6045 28.3548 26.9378 27.0207 28.583 27.0205H31.4902ZM24 18.3125C23.6203 18.3125 23.3125 18.6203 23.3125 19V21.0625H21.25C20.8703 21.0625 20.5625 21.3703 20.5625 21.75C20.5625 22.1297 20.8703 22.4375 21.25 22.4375H23.3125V24.5C23.3125 24.8797 23.6203 25.1875 24 25.1875C24.3797 25.1875 24.6875 24.8797 24.6875 24.5V22.4375H26.75C27.1297 22.4375 27.4375 22.1297 27.4375 21.75C27.4375 21.3703 27.1297 21.0625 26.75 21.0625H24.6875V19C24.6875 18.6203 24.3797 18.3125 24 18.3125Z" fill="#28303F"/>
</svg>
